<svg width="63" height="15" viewBox="0 0 63 15" fill="none" xmlns="http://www.w3.org/2000/svg">
<path d="M9.16206 9.688C9.16206 7.384 7.14606 6.648 5.46606 6.136L5.32206 6.088V3.592C6.01006 3.752 6.45806 4.216 6.74606 5.064L9.13006 4.52C8.69806 2.52 7.06606 1.608 5.32206 1.416V0.455999H4.44206V1.368C2.07406 1.416 0.442062 2.76 0.442062 4.792C0.442062 6.936 2.25006 7.608 3.89806 8.12C4.09006 8.184 4.26606 8.232 4.44206 8.296V11.048C3.56206 10.92 2.92206 10.344 2.63406 9.192L0.0260625 9.752C0.346063 11.864 2.13806 13.096 4.44206 13.208V14.28H5.32206V13.208C7.65806 13.048 9.16206 11.688 9.16206 9.688ZM3.11406 4.648C3.11406 4.008 3.64206 3.608 4.44206 3.544V5.816C3.67406 5.56 3.11406 5.256 3.11406 4.648ZM5.32206 8.6C5.97806 8.888 6.41006 9.256 6.41006 9.896C6.41006 10.504 6.02606 10.92 5.32206 11.048V8.6ZM11.6778 3.768V6.632L14.2698 4.536V13H16.7978V1.592H14.3658L11.6778 3.768ZM26.8034 7.832C27.8114 6.808 28.2754 5.944 28.2754 4.696C28.2754 2.616 26.6274 1.368 24.3234 1.368C21.8594 1.368 20.3234 2.776 20.3234 5.128V5.624L22.8514 5.88V5.352C22.8514 4.184 23.3954 3.624 24.4354 3.624C25.2834 3.624 25.7794 4.024 25.7794 4.792C25.7794 5.384 25.4754 5.848 24.8994 6.44L20.3554 11.048V13H28.4674V10.76H23.9714L26.8034 7.832Z" fill="#7FAD39"/>
<path d="M42.5173 9.832C42.5173 7.592 40.5173 6.952 38.8053 6.488C38.7893 6.488 38.7733 6.472 38.7573 6.472V3.24C39.7013 3.384 40.2933 3.912 40.6293 4.92L42.4213 4.504C41.9733 2.632 40.4853 1.768 38.7573 1.592V0.615999H38.0373V1.56C35.7333 1.576 34.1493 2.872 34.1493 4.84C34.1493 6.936 35.9893 7.528 37.6693 7.992L38.0373 8.088V11.56C36.8693 11.464 36.0373 10.808 35.7333 9.544L33.7813 9.96C34.1173 11.944 35.8133 13.096 38.0373 13.208V14.232H38.7573V13.192C41.0453 13.064 42.5173 11.768 42.5173 9.832ZM36.1493 4.728C36.1493 3.816 36.9013 3.24 38.0373 3.192V6.28C36.9813 5.992 36.1493 5.64 36.1493 4.728ZM38.7573 8.296C39.7333 8.616 40.4533 9.032 40.4533 9.976C40.4533 10.872 39.8453 11.448 38.7573 11.56V8.296ZM45.2269 3.96V6.136L47.8669 3.992V13H49.7709V1.768H47.9309L45.2269 3.96ZM55.8164 5.816L56.0404 3.464H60.8244V1.768H54.3284L53.8324 7.384H56.5684C58.1044 7.384 59.4484 7.736 59.4484 9.464C59.4484 10.632 58.7284 11.512 57.4644 11.512C56.1044 11.512 55.3364 10.712 55.3364 9.4C55.3364 9.304 55.3364 9.208 55.3524 9.112H53.4804C53.4644 9.256 53.4644 9.416 53.4644 9.56C53.4644 11.816 55.0164 13.208 57.4324 13.208C59.8004 13.208 61.3524 11.688 61.3524 9.336C61.3524 6.936 59.8964 5.816 57.1924 5.816H55.8164Z" fill="#A9A9A9"/>
<path d="M33.4453 8.232H62.0884V9.272H33.4453V8.232Z" fill="#A9A9A9"/>
</svg>
