<svg width="125" height="50" viewBox="0 0 125 50" fill="none" xmlns="http://www.w3.org/2000/svg">
<rect width="125" height="50" fill="#7FAD39"/>
<path d="M48.812 29.168C50.78 29.168 52.34 28.088 52.928 26.396L51.068 25.736C50.744 26.732 49.892 27.356 48.812 27.356C47.396 27.356 46.376 26.312 46.376 24.728C46.376 23.144 47.396 22.088 48.812 22.088C49.892 22.088 50.744 22.712 51.068 23.708L52.928 23.048C52.34 21.356 50.78 20.276 48.812 20.276C46.232 20.276 44.396 22.088 44.396 24.728C44.396 27.368 46.232 29.168 48.812 29.168ZM61.8909 29L58.7229 20.444H56.2749L53.1069 29H55.2069L55.7949 27.32H59.1909L59.7789 29H61.8909ZM57.4989 22.496L58.6149 25.676H56.3829L57.4989 22.496ZM69.6091 29L67.3291 25.7C67.4371 25.664 67.5451 25.616 67.6651 25.556C68.5411 25.1 68.9491 24.152 68.9491 23.132C68.9491 22.208 68.6491 21.548 68.1571 21.14C67.6051 20.672 66.8371 20.444 65.5891 20.444H62.7211V29H64.7011V25.76H65.0731L67.1851 29H69.6091ZM65.3131 22.1C65.7211 22.1 66.2491 22.112 66.5851 22.34C66.8251 22.52 66.9691 22.808 66.9691 23.252C66.9691 23.684 66.8371 23.972 66.5971 24.14C66.2851 24.392 65.6851 24.392 65.3131 24.392H64.7011V22.1H65.3131ZM69.7841 20.444V22.184H71.7761V29H73.7561V22.184H75.7481V20.444H69.7841ZM84.4288 25.124C85.1848 24.356 85.5328 23.708 85.5328 22.772C85.5328 21.212 84.2968 20.276 82.5688 20.276C80.7208 20.276 79.5688 21.332 79.5688 23.096V23.468L81.4648 23.66V23.264C81.4648 22.388 81.8728 21.968 82.6528 21.968C83.2888 21.968 83.6608 22.268 83.6608 22.844C83.6608 23.288 83.4328 23.636 83.0008 24.08L79.5928 27.536V29H85.6768V27.32H82.3048L84.4288 25.124Z" fill="white"/>
<g clip-path="url(#clip0_202_75)">
<path d="M29.55 26C30.3 26 30.96 25.59 31.3 24.97L34.88 18.48C35.25 17.82 34.77 17 34.01 17H19.21L18.27 15H15V17H17L20.6 24.59L19.25 27.03C18.52 28.37 19.48 30 21 30H33V28H21L22.1 26H29.55ZM20.16 19H32.31L29.55 24H22.53L20.16 19ZM21 31C19.9 31 19.01 31.9 19.01 33C19.01 34.1 19.9 35 21 35C22.1 35 23 34.1 23 33C23 31.9 22.1 31 21 31ZM31 31C29.9 31 29.01 31.9 29.01 33C29.01 34.1 29.9 35 31 35C32.1 35 33 34.1 33 33C33 31.9 32.1 31 31 31Z" fill="white"/>
</g>
<g clip-path="url(#clip1_202_75)">
<path d="M96.833 23.3333L101 27.4999L105.166 23.3333H96.833Z" fill="white"/>
</g>
<defs>
<clipPath id="clip0_202_75">
<rect width="24" height="24" fill="white" transform="translate(14 13)"/>
</clipPath>
<clipPath id="clip1_202_75">
<rect width="20" height="20" fill="white" transform="translate(91 15)"/>
</clipPath>
</defs>
</svg>
