<svg width="254" height="26" viewBox="0 0 254 26" fill="none" xmlns="http://www.w3.org/2000/svg">
<rect x="211" y="0.0976562" width="43" height="25.0498" rx="4" fill="white"/>
<path fill-rule="evenodd" clip-rule="evenodd" d="M247.295 14.5704H245.776C245.624 14.5704 245.524 14.5759 245.439 14.6314C245.351 14.6861 245.317 14.7673 245.317 14.8744C245.317 15.0018 245.391 15.0884 245.499 15.1259C245.587 15.1555 245.682 15.1642 245.821 15.1642L246.272 15.1759C246.728 15.1868 247.033 15.2626 247.218 15.4477C247.252 15.4734 247.272 15.5023 247.295 15.5312V14.5704ZM247.295 16.7965C247.093 17.0832 246.698 17.2285 246.164 17.2285H244.554V16.5044H246.158C246.317 16.5044 246.428 16.4841 246.495 16.4208C246.553 16.3686 246.594 16.2927 246.594 16.2006C246.594 16.1022 246.553 16.0241 246.492 15.9773C246.431 15.9258 246.343 15.9023 246.198 15.9023C245.415 15.8766 244.439 15.9258 244.439 14.8573C244.439 14.3675 244.76 13.852 245.635 13.852H247.295V13.1802H245.753C245.287 13.1802 244.949 13.2881 244.709 13.4559V13.1802H242.428C242.063 13.1802 241.634 13.2677 241.432 13.4559V13.1802H237.357V13.4559C237.033 13.2295 236.486 13.1802 236.233 13.1802H233.545V13.4559C233.289 13.2154 232.718 13.1802 232.371 13.1802H229.363L228.674 13.9013L228.029 13.1802H223.536V17.8916H227.945L228.654 17.1591L229.322 17.8916L232.04 17.894V16.7856H232.307C232.668 16.791 233.093 16.777 233.468 16.62V17.8915H235.71V16.6636H235.818C235.956 16.6636 235.969 16.6691 235.969 16.8025V17.8914H242.779C243.211 17.8914 243.663 17.7843 243.913 17.5899V17.8914H246.073C246.523 17.8914 246.961 17.8304 247.295 17.6742V16.7965ZM243.97 15.4476C244.133 15.6102 244.22 15.8155 244.22 16.163C244.22 16.8894 243.751 17.2285 242.91 17.2285H241.287V16.5044H242.904C243.062 16.5044 243.174 16.4842 243.244 16.4208C243.301 16.3686 243.343 16.2927 243.343 16.2006C243.343 16.1022 243.298 16.0241 243.241 15.9773C243.177 15.9258 243.089 15.9024 242.944 15.9024C242.164 15.8766 241.188 15.9258 241.188 14.8573C241.188 14.3675 241.506 13.852 242.38 13.852H244.051V14.5706H242.522C242.37 14.5706 242.272 14.5761 242.188 14.6316C242.097 14.6863 242.063 14.7675 242.063 14.8746C242.063 15.002 242.14 15.0886 242.245 15.1261C242.333 15.1557 242.428 15.1644 242.57 15.1644L243.018 15.1761C243.471 15.1868 243.782 15.2625 243.97 15.4476ZM236.449 15.2391C236.337 15.3032 236.199 15.3087 236.037 15.3087H235.024V14.5503H236.051C236.199 14.5503 236.348 14.5533 236.449 14.6113C236.557 14.6659 236.621 14.7705 236.621 14.915C236.621 15.0595 236.557 15.1759 236.449 15.2391ZM236.952 15.6593C237.138 15.7256 237.289 15.8444 237.36 15.9428C237.478 16.1076 237.495 16.2615 237.499 16.5591V17.2285H236.662V16.806C236.662 16.6029 236.682 16.3021 236.527 16.1451C236.405 16.0241 236.22 15.9952 235.915 15.9952H235.025V17.2285H234.187V13.8519H236.111C236.533 13.8519 236.841 13.8699 237.114 14.0112C237.378 14.1651 237.543 14.3759 237.543 14.7611C237.543 15.3 237.172 15.575 236.952 15.6593ZM238.005 13.8519H240.787V14.5502H238.835V15.1641H240.74V15.853H238.835V16.5248L240.787 16.5279V17.2285H238.005V13.8519ZM232.381 15.4102H231.304V14.5503H232.391C232.692 14.5503 232.901 14.669 232.901 14.9643C232.901 15.2563 232.701 15.4102 232.381 15.4102ZM230.474 16.9214L229.194 15.546L230.474 14.2143V16.9214ZM227.169 16.5248H225.119V15.853H226.949V15.1641H225.119V14.5502H227.209L228.121 15.5342L227.169 16.5248ZM233.796 14.9643C233.796 15.9023 233.073 16.0959 232.344 16.0959H231.304V17.2285H229.684L228.657 16.1107L227.591 17.2285H224.289V13.8519H227.641L228.667 14.9587L229.727 13.8519H232.391C233.052 13.8519 233.796 14.0292 233.796 14.9643Z" fill="#0072CE"/>
<path fill-rule="evenodd" clip-rule="evenodd" d="M220.312 9.96054L219.741 8.61481L219.174 9.96054H220.312ZM232.881 9.42466C232.766 9.49196 232.631 9.4942 232.468 9.4942H231.456V8.74442H232.482C232.627 8.74442 232.779 8.75073 232.877 8.8053C232.986 8.85448 233.052 8.95915 233.052 9.10373C233.052 9.25126 232.989 9.36998 232.881 9.42466ZM240.105 9.96054L239.528 8.61481L238.954 9.96054H240.105ZM226.639 11.4172H225.784L225.781 8.77331L224.572 11.4172H223.84L222.629 8.77096V11.4172H220.933L220.613 10.6642H218.877L218.554 11.4172H217.648L219.141 8.04141H220.38L221.797 11.2376V8.04141H223.158L224.249 10.3315L225.251 8.04141H226.639V11.4172H226.639ZM230.045 11.4172H227.26V8.04141H230.045V8.74439H228.094V9.35287H229.998V10.0449H228.094V10.719H230.045V11.4172ZM233.971 8.95058C233.971 9.48881 233.6 9.76688 233.383 9.85037C233.566 9.91758 233.722 10.0363 233.796 10.1347C233.913 10.3026 233.934 10.4525 233.934 10.754V11.4172H233.093L233.09 10.9915C233.09 10.7884 233.11 10.4962 232.958 10.3338C232.836 10.2151 232.651 10.1893 232.351 10.1893H231.456V11.4172H230.622V8.04141H232.54C232.966 8.04141 233.279 8.05231 233.549 8.20311C233.813 8.3539 233.971 8.57404 233.971 8.95058ZM235.305 11.4172H234.454V8.04141H235.305V11.4172ZM245.172 11.4172H243.991L242.411 8.88348V11.4172H240.713L240.389 10.6642H238.657L238.342 11.4172H237.367C236.962 11.4172 236.449 11.3305 236.158 11.0438C235.865 10.7572 235.713 10.369 235.713 9.75507C235.713 9.25441 235.804 8.79673 236.162 8.43505C236.432 8.16563 236.854 8.04141 237.428 8.04141H238.235V8.76475H237.445C237.141 8.76475 236.969 8.80854 236.804 8.96473C236.662 9.10687 236.564 9.37558 236.564 9.72941C236.564 10.0911 236.638 10.3518 236.793 10.5222C236.922 10.6558 237.155 10.6963 237.374 10.6963H237.749L238.924 8.04151H240.172L241.584 11.2345V8.04151H242.853L244.318 10.3926V8.04151H245.172V11.4172ZM217.639 12.0803H219.063L219.384 11.3305H220.103L220.423 12.0803H223.226V11.507L223.476 12.0827H224.93L225.181 11.4985V12.0803H232.145L232.142 10.8495H232.276C232.371 10.8526 232.398 10.8611 232.398 11.0119V12.0803H236V11.7938C236.291 11.9445 236.742 12.0803 237.337 12.0803H238.852L239.177 11.3305H239.896L240.213 12.0803H243.133V11.368L243.575 12.0803H245.915V7.37207H243.599V7.92812L243.275 7.37207H240.899V7.92812L240.601 7.37207H237.391C236.854 7.37207 236.382 7.44467 236 7.64699V7.37207H233.785V7.64699C233.542 7.43846 233.211 7.37207 232.844 7.37207H224.751L224.208 8.58812L223.651 7.37207H221.102V7.92812L220.822 7.37207H218.648L217.639 9.61061V12.0803H217.639Z" fill="#0072CE"/>
<rect x="158" y="0.0976562" width="43" height="25.0498" rx="4" fill="white"/>
<path fill-rule="evenodd" clip-rule="evenodd" d="M182.517 12.6228C182.517 17.1825 178.684 20.8787 173.957 20.8787C169.23 20.8787 165.398 17.1825 165.398 12.6228C165.398 8.0636 169.23 4.36719 173.957 4.36719C178.684 4.36719 182.517 8.0636 182.517 12.6228Z" fill="#333399"/>
<path fill-rule="evenodd" clip-rule="evenodd" d="M185.449 4.36719C183.237 4.36719 181.222 5.17648 179.703 6.50412C179.394 6.77445 179.105 7.06696 178.839 7.37786H180.568C180.804 7.65511 181.022 7.94657 181.22 8.25213H178.186C178.005 8.5329 177.839 8.82449 177.693 9.12639H181.713C181.851 9.40951 181.972 9.70097 182.076 10.0001H177.331C177.232 10.2853 177.149 10.5768 177.082 10.8745H182.324C182.45 11.4382 182.517 12.0229 182.517 12.6228C182.517 13.5396 182.362 14.4216 182.076 15.2455H177.331C177.435 15.5448 177.556 15.8366 177.693 16.1197H181.713C181.567 16.4214 181.402 16.7132 181.22 16.994H178.186C178.384 17.299 178.602 17.591 178.839 17.8677H180.568C180.302 18.1792 180.013 18.4717 179.703 18.742C181.222 20.0696 183.237 20.8787 185.449 20.8787C190.176 20.8787 194.008 17.1825 194.008 12.6228C194.008 8.0636 190.176 4.36719 185.449 4.36719Z" fill="#0066CC"/>
<path fill-rule="evenodd" clip-rule="evenodd" d="M192.866 17.2243C192.866 17.0771 192.99 16.958 193.143 16.958C193.295 16.958 193.419 17.0771 193.419 17.2243C193.419 17.3716 193.295 17.4911 193.143 17.4911C192.99 17.4911 192.866 17.3716 192.866 17.2243ZM193.142 17.4272C193.259 17.4272 193.353 17.3365 193.353 17.2243C193.353 17.1125 193.259 17.0221 193.142 17.0221C193.027 17.0221 192.933 17.1125 192.933 17.2243C192.933 17.3365 193.027 17.4272 193.142 17.4272ZM193.105 17.3413H193.049V17.1074H193.151C193.173 17.1074 193.194 17.1074 193.213 17.1191C193.233 17.132 193.244 17.1545 193.244 17.1774C193.244 17.2042 193.228 17.229 193.202 17.2384L193.246 17.3413H193.184L193.147 17.2488H193.105V17.3413ZM193.105 17.2087H193.137C193.148 17.2087 193.161 17.2095 193.171 17.2042C193.18 17.1983 193.185 17.1876 193.185 17.1772C193.185 17.1683 193.18 17.1581 193.172 17.1533C193.162 17.1477 193.146 17.1491 193.136 17.1491H193.105V17.2087Z" fill="#0066CC"/>
<path fill-rule="evenodd" clip-rule="evenodd" d="M173.464 10.7327C173.387 11.0565 173.347 11.24 173.244 11.6342C172.6 11.371 171.737 11.2336 171.075 11.6324C170.45 12.016 170.239 12.6144 170.285 13.2773C170.331 13.5963 170.579 13.9079 170.929 14.0431C171.535 14.2589 172.113 14.1799 172.756 13.8626C172.665 14.2617 172.596 14.5751 172.516 14.8604C171.744 15.0684 171.011 15.1368 170.239 14.8893C169.55 14.658 168.989 14.0591 168.944 13.4129C168.787 12.3752 169.302 11.3134 170.349 10.8261C171.323 10.4034 172.435 10.4769 173.464 10.7327Z" fill="#000066"/>
<path fill-rule="evenodd" clip-rule="evenodd" d="M184.37 14.4209C184.166 14.6173 183.82 15.0478 182.881 15.0478C182.025 15.0478 181.424 14.439 181.729 13.0721C181.729 13.0718 182.082 11.4629 182.082 11.4629H183.388C183.388 11.4629 183.034 13.0736 183.034 13.0721C182.914 13.6195 182.942 14.0361 183.519 14.0361C184.198 14.0361 184.401 13.6399 184.53 13.0721C184.529 13.0729 184.884 11.4629 184.884 11.4629H186.247L185.661 14.0497C185.594 14.3531 185.53 14.6745 185.493 14.9914H184.267C184.267 14.9914 184.345 14.5605 184.37 14.4209Z" fill="#000066"/>
<path fill-rule="evenodd" clip-rule="evenodd" d="M186.681 12.5788C186.681 13.0263 186.985 13.3322 187.677 13.5606C188.212 13.7408 188.296 13.7936 188.296 13.9503C188.296 14.1736 188.057 14.2683 187.542 14.2683C187.15 14.2683 186.786 14.2306 186.364 14.1325C186.364 14.1325 186.199 14.8644 186.182 14.9479C186.548 15.0109 187.183 15.0478 187.551 15.0478C188.934 15.0478 189.575 14.6749 189.575 13.8705C189.575 13.3892 189.306 13.1058 188.65 12.8887C188.097 12.7134 188.036 12.6729 188.036 12.5055C188.036 12.3182 188.254 12.2188 188.679 12.2188C188.935 12.2188 189.293 12.2396 189.626 12.2733L189.81 11.4546C189.47 11.4156 188.953 11.3843 188.654 11.3843C187.186 11.3843 186.676 11.9292 186.681 12.5788Z" fill="#000066"/>
<path fill-rule="evenodd" clip-rule="evenodd" d="M173.961 11.4629H175.328L174.549 14.9914H173.183L173.961 11.4629Z" fill="#000066"/>
<path fill-rule="evenodd" clip-rule="evenodd" d="M181.767 11.4478C180.804 11.3251 180.529 11.7817 180.27 12.0087C180.301 11.825 180.358 11.6459 180.347 11.4628H179.091C178.919 12.5555 178.612 13.6612 178.372 14.7539L178.31 14.9911H179.731C179.893 14.2746 180.081 13.1929 180.299 12.8654C180.516 12.5384 180.877 12.2771 181.351 12.4343L181.767 11.4478Z" fill="#000066"/>
<path fill-rule="evenodd" clip-rule="evenodd" d="M178.789 11.4478C177.825 11.3251 177.55 11.7817 177.291 12.0087C177.322 11.825 177.379 11.6459 177.368 11.4628H176.113C175.94 12.5555 175.634 13.6612 175.394 14.7539L175.331 14.9911H176.752C176.914 14.2746 177.103 13.1929 177.32 12.8654C177.537 12.5384 177.898 12.2771 178.373 12.4343L178.789 11.4478Z" fill="#000066"/>
<path fill-rule="evenodd" clip-rule="evenodd" d="M189.994 14.4665C189.994 14.3192 190.118 14.1997 190.271 14.1997C190.423 14.1997 190.547 14.3192 190.547 14.4665C190.547 14.6138 190.423 14.7331 190.271 14.7331C190.118 14.7331 189.994 14.6138 189.994 14.4665ZM190.271 14.6691C190.387 14.6691 190.481 14.5783 190.481 14.4665C190.481 14.3546 190.387 14.2639 190.271 14.2639C190.155 14.2639 190.06 14.3546 190.06 14.4665C190.06 14.5783 190.155 14.6691 190.271 14.6691ZM190.233 14.5834H190.177V14.3489H190.279C190.3 14.3489 190.322 14.3495 190.341 14.3612C190.361 14.374 190.372 14.3967 190.372 14.4195C190.372 14.4461 190.356 14.4708 190.33 14.4802L190.375 14.5834H190.312L190.275 14.4906H190.233V14.5834ZM190.233 14.4505H190.265C190.276 14.4505 190.289 14.4515 190.299 14.4462C190.308 14.4405 190.313 14.4296 190.313 14.4194C190.313 14.4104 190.307 14.4 190.3 14.3951C190.29 14.3898 190.274 14.3911 190.263 14.3911H190.233V14.4505Z" fill="white"/>
<path fill-rule="evenodd" clip-rule="evenodd" d="M173.731 10.4743C173.655 10.7986 173.615 10.982 173.511 11.3759C172.868 11.113 172.005 10.9756 171.343 11.3742C170.718 11.7576 170.507 12.3562 170.552 13.019C170.599 13.3383 170.847 13.6497 171.196 13.785C171.802 14.0006 172.38 13.9216 173.024 13.6043C172.933 14.0036 172.863 14.317 172.783 14.6025C172.012 14.8102 171.279 14.8787 170.507 14.6312C169.817 14.3999 169.257 13.801 169.211 13.1546C169.055 12.1169 169.569 11.0551 170.617 10.5679C171.591 10.1452 172.702 10.2185 173.731 10.4743Z" fill="white"/>
<path fill-rule="evenodd" clip-rule="evenodd" d="M184.637 14.163C184.434 14.3595 184.088 14.7896 183.148 14.7896C182.293 14.7896 181.749 14.181 182.053 12.814L182.407 11.2051H183.713C183.713 11.2051 183.358 12.8154 183.359 12.814C183.238 13.3616 183.267 13.7782 183.844 13.7782C184.522 13.7782 184.726 13.3819 184.854 12.814C184.853 12.8151 185.209 11.2051 185.209 11.2051H186.515L185.928 13.7917C185.862 14.0949 185.798 14.4163 185.761 14.7336H184.535C184.535 14.7336 184.612 14.3024 184.637 14.163Z" fill="white"/>
<path fill-rule="evenodd" clip-rule="evenodd" d="M186.948 12.3208C186.948 12.7683 187.253 13.0741 187.945 13.3024C188.48 13.4826 188.564 13.5356 188.564 13.692C188.564 13.9155 188.325 14.0103 187.81 14.0103C187.418 14.0103 187.054 13.9724 186.632 13.8745C186.632 13.8745 186.466 14.6061 186.449 14.6899C186.816 14.7528 187.45 14.7895 187.819 14.7895C189.202 14.7895 189.843 14.417 189.843 13.6123C189.843 13.1309 189.574 12.8479 188.918 12.6308C188.365 12.4554 188.304 12.4146 188.304 12.2475C188.304 12.0601 188.522 11.9608 188.947 11.9608C189.203 11.9608 189.561 11.9817 189.894 12.0151L190.078 11.1963C189.738 11.1573 189.22 11.126 188.922 11.126C187.454 11.126 186.944 11.6711 186.948 12.3208Z" fill="white"/>
<path fill-rule="evenodd" clip-rule="evenodd" d="M174.286 11.2051H175.596L174.818 14.7336H173.508L174.286 11.2051Z" fill="white"/>
<path fill-rule="evenodd" clip-rule="evenodd" d="M182.036 11.1901C181.072 11.0672 180.797 11.5238 180.538 11.7508C180.569 11.5671 180.626 11.3877 180.615 11.2051H179.416C179.244 12.2975 178.937 13.4031 178.698 14.496L178.635 14.7331H179.999C180.161 14.0166 180.35 12.9348 180.567 12.6076C180.784 12.2804 181.145 12.0192 181.619 12.1764L182.036 11.1901Z" fill="white"/>
<path fill-rule="evenodd" clip-rule="evenodd" d="M179.056 11.1901C178.093 11.0672 177.818 11.5238 177.559 11.7508C177.59 11.5671 177.647 11.3877 177.635 11.2051H176.437C176.264 12.2975 175.958 13.4031 175.718 14.496L175.655 14.7331H177.019C177.182 14.0166 177.37 12.9348 177.588 12.6076C177.805 12.2804 178.166 12.0192 178.64 12.1764L179.056 11.1901Z" fill="white"/>
<rect x="105" y="0.0976562" width="43" height="25.0498" rx="4" fill="white"/>
<path fill-rule="evenodd" clip-rule="evenodd" d="M140.972 12.6158C140.972 17.2314 137.134 20.9725 132.399 20.9725C127.664 20.9725 123.825 17.2314 123.825 12.6158C123.825 8.00008 127.664 4.25879 132.399 4.25879C137.134 4.25879 140.972 8.00008 140.972 12.6158Z" fill="#CC0000"/>
<path fill-rule="evenodd" clip-rule="evenodd" d="M125.775 17.9227C125.538 17.6429 125.32 17.3472 125.122 17.0376H128.161C128.343 16.7539 128.508 16.4584 128.655 16.1526H124.628C124.491 15.8663 124.369 15.571 124.265 15.2679H129.017C129.303 14.4346 129.458 13.5432 129.458 12.6158C129.458 12.0085 129.392 11.4164 129.266 10.8461H124.018C124.084 10.5446 124.168 10.2496 124.266 9.96113H129.017C128.912 9.65804 128.791 9.36287 128.654 9.07655H124.629C124.776 8.77082 124.941 8.47578 125.123 8.19145H128.16C127.962 7.88268 127.743 7.58751 127.507 7.30727H125.776C126.042 6.99229 126.332 6.69659 126.642 6.42282C125.12 5.07799 123.1 4.25879 120.885 4.25879C116.149 4.25879 112.311 8.00008 112.311 12.6158C112.311 17.2314 116.149 20.9725 120.885 20.9725C123.1 20.9725 125.12 20.1533 126.642 18.809C126.952 18.5347 127.241 18.2384 127.508 17.9227H125.775Z" fill="#0066CC"/>
<path fill-rule="evenodd" clip-rule="evenodd" d="M126.519 14.8743C126.153 14.9688 125.798 15.0151 125.424 15.0143C124.229 15.0132 123.606 14.4827 123.606 13.4682C123.606 12.2829 124.399 11.4111 125.474 11.4111C126.354 11.4111 126.916 11.8999 126.916 12.6658C126.916 12.9198 126.878 13.1675 126.784 13.5174H124.659C124.584 14.013 124.955 14.2305 125.587 14.2305C125.965 14.2305 126.307 14.1642 126.687 14.0156L126.519 14.8743ZM125.948 12.8184C125.948 12.7437 126.066 12.2117 125.451 12.2002C125.111 12.2002 124.868 12.4202 124.769 12.8184H125.948Z" fill="#000066"/>
<path fill-rule="evenodd" clip-rule="evenodd" d="M127.239 12.586C127.239 13.0238 127.492 13.3263 128.067 13.5515C128.506 13.7269 128.576 13.7777 128.576 13.9345C128.576 14.1518 128.382 14.2513 127.95 14.2487C127.627 14.2464 127.331 14.208 126.982 14.1138L126.828 14.9125C127.138 14.9826 127.573 15.0056 127.958 15.0143C129.106 15.0143 129.635 14.6481 129.635 13.8564C129.635 13.3805 129.414 13.1006 128.869 12.892C128.414 12.7145 128.36 12.6763 128.36 12.5156C128.36 12.327 128.541 12.2316 128.893 12.2316C129.106 12.2316 129.398 12.2506 129.676 12.2834L129.831 11.4804C129.549 11.4423 129.12 11.4116 128.872 11.4116C127.656 11.4116 127.236 11.945 127.239 12.586Z" fill="#000066"/>
<path fill-rule="evenodd" clip-rule="evenodd" d="M123.024 14.9571H122.133L122.154 14.5931C121.882 14.8802 121.52 15.014 121.029 15.014C120.447 15.014 120.049 14.6264 120.049 14.0689C120.049 13.2216 120.741 12.7328 121.932 12.7328C122.055 12.7328 122.21 12.7418 122.37 12.7594C122.403 12.6459 122.412 12.5971 122.412 12.5355C122.412 12.3036 122.225 12.2182 121.724 12.2182C121.23 12.22 120.896 12.2915 120.587 12.3724L120.739 11.5951C121.274 11.4625 121.624 11.4111 122.021 11.4111C122.943 11.4111 123.43 11.7637 123.43 12.4259C123.438 12.6028 123.375 12.9575 123.343 13.1128C123.307 13.3385 123.051 14.6481 123.024 14.9571ZM122.242 13.4111C122.129 13.4003 122.08 13.397 122.002 13.397C121.394 13.397 121.086 13.5734 121.086 13.9217C121.086 14.1404 121.237 14.2771 121.471 14.2771C121.908 14.2771 122.223 13.9209 122.242 13.4111Z" fill="#000066"/>
<path fill-rule="evenodd" clip-rule="evenodd" d="M131.514 14.9019C131.222 14.9799 130.994 15.014 130.747 15.014C130.201 15.014 129.903 14.7419 129.903 14.2575C129.886 14.1244 130.019 13.5095 130.05 13.3382C130.08 13.1664 130.553 10.6616 130.553 10.6616H131.614L131.453 11.4905H131.997L131.85 12.3361H131.303C131.303 12.3361 131.003 13.8043 131.003 13.9165C131.003 14.0944 131.114 14.1718 131.368 14.1718C131.489 14.1718 131.583 14.1607 131.656 14.1396L131.514 14.9019Z" fill="#000066"/>
<path fill-rule="evenodd" clip-rule="evenodd" d="M136.256 11.411C135.478 11.411 134.87 11.7233 134.517 12.2442L134.824 11.4713C134.259 11.2694 133.895 11.5577 133.566 11.9674C133.566 11.9674 133.511 12.0354 133.456 12.0976V11.4902H132.46C132.325 12.5622 132.086 13.6494 131.9 14.7237L131.854 14.9573H132.926C133.028 14.4122 133.111 13.9698 133.195 13.6169C133.422 12.6488 133.806 12.353 134.381 12.484C134.248 12.762 134.175 13.0842 134.175 13.4407C134.175 14.3061 134.657 15.0141 135.854 15.0141C137.062 15.0141 137.937 14.3852 137.937 12.9511C137.937 12.0862 137.354 11.411 136.256 11.411ZM135.944 14.173C135.565 14.1786 135.336 13.8691 135.336 13.4058C135.336 12.8569 135.67 12.2366 136.208 12.2366C136.643 12.2366 136.791 12.5722 136.791 12.9297C136.791 13.7105 136.463 14.173 135.944 14.173Z" fill="#000066"/>
<path fill-rule="evenodd" clip-rule="evenodd" d="M119.549 14.9572H118.482L119.116 11.6999L117.656 14.9572H116.683L116.505 11.719L115.869 14.9572H114.9L115.725 10.7202H117.393L117.532 13.0822L118.589 10.7202H120.39L119.549 14.9572Z" fill="#000066"/>
<path fill-rule="evenodd" clip-rule="evenodd" d="M126.787 14.6129C126.421 14.7076 126.067 14.7539 125.692 14.7531C124.497 14.752 123.875 14.2214 123.875 13.207C123.875 12.0217 124.667 11.1499 125.743 11.1499C126.622 11.1499 127.184 11.6387 127.184 12.4044C127.184 12.6585 127.146 12.9056 127.053 13.2562H124.928C124.852 13.7512 125.223 13.9691 125.855 13.9691C126.234 13.9691 126.576 13.9028 126.955 13.754L126.787 14.6129ZM126.216 12.5572C126.216 12.4823 126.334 11.9505 125.719 11.9388C125.38 11.9388 125.136 12.1589 125.038 12.5572H126.216Z" fill="white"/>
<path fill-rule="evenodd" clip-rule="evenodd" d="M127.507 12.3246C127.507 12.7625 127.76 13.0648 128.335 13.2903C128.774 13.4658 128.843 13.5165 128.843 13.6728C128.843 13.8905 128.649 13.9901 128.218 13.9876C127.894 13.9852 127.599 13.9468 127.25 13.8526L127.096 14.6509C127.406 14.7213 127.841 14.7443 128.226 14.7531C129.373 14.7531 129.903 14.3868 129.903 13.5949C129.903 13.1192 129.682 12.8391 129.137 12.6307C128.682 12.4534 128.628 12.4147 128.628 12.2545C128.628 12.0659 128.809 11.9701 129.161 11.9701C129.374 11.9701 129.666 11.9895 129.943 12.0223L130.099 11.2193C129.816 11.1806 129.388 11.1504 129.14 11.1504C127.924 11.1504 127.503 11.6835 127.507 12.3246Z" fill="white"/>
<path fill-rule="evenodd" clip-rule="evenodd" d="M123.292 14.6957H122.401L122.422 14.3318C122.15 14.6186 121.788 14.7523 121.297 14.7523C120.715 14.7523 120.316 14.3648 120.316 13.8073C120.316 12.9603 121.009 12.4715 122.2 12.4715C122.322 12.4715 122.478 12.4806 122.638 12.4975C122.671 12.3843 122.68 12.3359 122.68 12.2742C122.68 12.0417 122.493 11.9567 121.992 11.9567C121.497 11.9587 121.164 12.0301 120.855 12.1112L121.007 11.3337C121.542 11.2011 121.892 11.1499 122.289 11.1499C123.211 11.1499 123.698 11.5021 123.698 12.1646C123.706 12.3415 123.642 12.6956 123.611 12.8514C123.574 13.0771 123.319 14.3867 123.292 14.6957ZM122.51 13.1499C122.397 13.1386 122.348 13.1357 122.27 13.1357C121.662 13.1357 121.354 13.3118 121.354 13.6598C121.354 13.8789 121.505 14.0159 121.739 14.0159C122.176 14.0159 122.491 13.6593 122.51 13.1499Z" fill="white"/>
<path fill-rule="evenodd" clip-rule="evenodd" d="M131.782 14.6406C131.489 14.7188 131.261 14.7529 131.015 14.7529C130.468 14.7529 130.17 14.4807 130.17 13.9963C130.153 13.8631 130.287 13.2482 130.317 13.077C130.347 12.9051 130.82 10.4004 130.82 10.4004H131.881L131.721 11.229H132.265L132.117 12.0748H131.571C131.571 12.0748 131.27 13.543 131.27 13.6547C131.27 13.8333 131.381 13.9102 131.635 13.9102C131.757 13.9102 131.85 13.8996 131.923 13.8782L131.782 14.6406Z" fill="white"/>
<path fill-rule="evenodd" clip-rule="evenodd" d="M137.059 12.668C137.059 13.4494 136.73 13.9119 136.211 13.9119C135.832 13.9172 135.603 13.608 135.603 13.1447C135.603 12.5959 135.938 11.9754 136.476 11.9754C136.91 11.9754 137.059 12.311 137.059 12.668ZM138.204 12.6899C138.204 11.8251 137.621 11.1499 136.523 11.1499C135.259 11.1499 134.442 11.9706 134.442 13.1796C134.442 14.0449 134.924 14.753 136.122 14.753C137.329 14.753 138.204 14.1241 138.204 12.6899Z" fill="white"/>
<path fill-rule="evenodd" clip-rule="evenodd" d="M132.727 11.2289C132.592 12.3012 132.354 13.3882 132.167 14.4625L132.122 14.6965H133.194C133.58 12.6216 133.71 12.0306 134.519 12.2386L134.908 11.2569C134.344 11.055 133.98 11.3435 133.651 11.7534C133.681 11.5689 133.737 11.3907 133.724 11.2289H132.727Z" fill="white"/>
<path fill-rule="evenodd" clip-rule="evenodd" d="M119.817 14.6966H118.75L119.384 11.4393L117.923 14.6966H116.95L116.773 11.4583L116.136 14.6966H115.168L115.993 10.4595H117.661L117.749 13.0826L118.923 10.4595H120.658L119.817 14.6966Z" fill="white"/>
<rect x="53" y="0.0976562" width="43" height="25.0498" rx="4" fill="white"/>
<path fill-rule="evenodd" clip-rule="evenodd" d="M77.1355 12.8253C77.1355 17.3252 73.3787 20.9725 68.7442 20.9725C64.1096 20.9725 60.3525 17.3252 60.3525 12.8253C60.3525 8.32551 64.1096 4.67773 68.7442 4.67773C73.3787 4.67773 77.1355 8.32551 77.1355 12.8253Z" fill="#CC0000"/>
<path fill-rule="evenodd" clip-rule="evenodd" d="M80.0098 4.67773C77.841 4.67773 75.8656 5.47641 74.3761 6.78663C74.0731 7.05366 73.7903 7.34208 73.5291 7.64916H75.2246C75.4561 7.92289 75.6695 8.21066 75.8643 8.51208H72.8893C72.7113 8.78903 72.5495 9.0768 72.4058 9.375H76.3475C76.4823 9.65427 76.6008 9.94191 76.7029 10.2375H72.0504C71.9536 10.5185 71.8719 10.8064 71.8066 11.0999H76.9464C77.0695 11.6562 77.135 12.2333 77.135 12.8253C77.135 13.7298 76.9832 14.6004 76.7029 15.4135H72.0504C72.1525 15.7089 72.271 15.9969 72.4055 16.2766H76.3475C76.2035 16.574 76.0425 16.862 75.8635 17.1394H72.8893C73.0833 17.4399 73.2971 17.728 73.5291 18.0014H75.2241C74.9635 18.3087 74.6803 18.5971 74.3764 18.8642C75.8658 20.1744 77.841 20.9725 80.0098 20.9725C84.6442 20.9725 88.4011 17.3252 88.4011 12.8253C88.4011 8.3259 84.6442 4.67773 80.0098 4.67773Z" fill="#FF9900"/>
<path fill-rule="evenodd" clip-rule="evenodd" d="M66.7849 13.7172C66.6892 13.7067 66.6471 13.7033 66.5814 13.7033C66.065 13.7033 65.8039 13.8754 65.8039 14.2151C65.8039 14.4244 65.9313 14.5574 66.1303 14.5574C66.5015 14.5574 66.7689 14.2144 66.7849 13.7172ZM67.4475 15.2148C67.326 15.2148 66.6924 15.2148 66.6924 15.2148L66.7098 14.8665C66.4796 15.1415 66.1723 15.2729 65.755 15.2729C65.2614 15.2729 64.9229 14.8987 64.9229 14.355C64.9229 13.5365 65.5115 13.0592 66.5221 13.0592C66.6257 13.0592 66.7581 13.0684 66.8936 13.085C66.9217 12.974 66.9291 12.9269 66.9291 12.8671C66.9291 12.6446 66.7705 12.5611 66.345 12.5611C65.8993 12.5568 65.5317 12.6645 65.3806 12.7127C65.3902 12.6568 65.507 11.9567 65.507 11.9567C65.9608 11.8272 66.2602 11.7788 66.5972 11.7788C67.3796 11.7788 67.794 12.1198 67.7931 12.7643C67.7947 12.9372 67.7651 13.1498 67.7194 13.4302C67.6403 13.9169 67.4706 14.9608 67.4475 15.2148Z" fill="#000066"/>
<path fill-rule="evenodd" clip-rule="evenodd" d="M64.5409 15.2147H63.6297L64.1519 12.038L62.9864 15.2147H62.3656L62.2889 12.0558L61.7404 15.2147H60.8877L61.5999 11.082H62.91L62.9892 13.3953L63.7884 11.082H65.2454L64.5409 15.2147Z" fill="#000066"/>
<path fill-rule="evenodd" clip-rule="evenodd" d="M81.1359 13.7172C81.0403 13.7067 80.9986 13.7033 80.9331 13.7033C80.4163 13.7033 80.1555 13.8754 80.1555 14.2151C80.1555 14.4244 80.2824 14.5574 80.4818 14.5574C80.8527 14.5574 81.1203 14.2144 81.1359 13.7172ZM81.7989 15.2148C81.6772 15.2148 81.0441 15.2148 81.0441 15.2148L81.0612 14.8665C80.831 15.1415 80.5239 15.2729 80.1068 15.2729C79.6126 15.2729 79.2744 14.8987 79.2744 14.355C79.2744 13.5365 79.8633 13.0592 80.8737 13.0592C80.9771 13.0592 81.1092 13.0684 81.2449 13.085C81.2731 12.974 81.2804 12.9269 81.2804 12.8671C81.2804 12.6446 81.1218 12.5611 80.6963 12.5611C80.2506 12.5568 79.8831 12.6645 79.7315 12.7127C79.7416 12.6568 79.8587 11.9567 79.8587 11.9567C80.3122 11.8272 80.6119 11.7788 80.9483 11.7788C81.7313 11.7788 82.1451 12.1198 82.1443 12.7643C82.1459 12.9372 82.1166 13.1498 82.0706 13.4302C81.9918 13.9169 81.8217 14.9608 81.7989 15.2148Z" fill="#000066"/>
<path fill-rule="evenodd" clip-rule="evenodd" d="M71.4959 15.1637C71.2465 15.2399 71.0522 15.2729 70.8413 15.2729C70.3757 15.2729 70.1215 15.0131 70.1215 14.5345C70.115 14.3859 70.1885 13.9951 70.2463 13.6387C70.2991 13.3247 70.6415 11.3452 70.6415 11.3452H71.5468L71.4411 11.8539H71.9882L71.8647 12.6617H71.3158C71.2106 13.3007 71.0607 14.097 71.0589 14.2025C71.0589 14.3759 71.1542 14.4516 71.371 14.4516C71.4748 14.4516 71.5552 14.4413 71.6166 14.4199L71.4959 15.1637Z" fill="#000066"/>
<path fill-rule="evenodd" clip-rule="evenodd" d="M74.2722 15.1365C73.961 15.2289 73.6612 15.2739 73.3431 15.2729C72.3292 15.2716 71.8008 14.7579 71.8008 13.7735C71.8008 12.6247 72.473 11.7788 73.3858 11.7788C74.1322 11.7788 74.6093 12.2524 74.6093 12.9948C74.6093 13.2416 74.5766 13.4821 74.4975 13.8215H72.6942C72.6333 14.3092 72.9545 14.5122 73.4816 14.5122C73.8054 14.5122 74.0979 14.4473 74.4229 14.3009L74.2722 15.1365ZM73.7632 13.1442C73.7683 13.074 73.859 12.5442 73.3415 12.5442C73.0534 12.5442 72.847 12.7576 72.7633 13.1442H73.7632Z" fill="#000066"/>
<path fill-rule="evenodd" clip-rule="evenodd" d="M67.9934 12.9165C67.9934 13.3413 68.2055 13.6344 68.6869 13.8547C69.0557 14.0233 69.1131 14.0731 69.1131 14.2257C69.1131 14.4349 68.9503 14.5299 68.59 14.5299C68.318 14.5299 68.0652 14.4885 67.7736 14.3969C67.7736 14.3969 67.6541 15.1381 67.6484 15.1735C67.8554 15.217 68.04 15.2575 68.5965 15.2729C69.5577 15.2729 70.0016 14.9175 70.0016 14.1495C70.0016 13.6877 69.816 13.4167 69.3595 13.2128C68.9777 13.0427 68.9336 13.0046 68.9336 12.8477C68.9336 12.6661 69.0852 12.5732 69.3794 12.5732C69.5583 12.5732 69.8025 12.5918 70.0341 12.6236L70.1637 11.8441C69.9279 11.8076 69.5701 11.7788 69.3619 11.7788C68.3429 11.7788 67.99 12.2955 67.9934 12.9165Z" fill="#000066"/>
<path fill-rule="evenodd" clip-rule="evenodd" d="M78.7031 11.8674C78.9561 11.8674 79.1924 11.9312 79.5172 12.0905L79.6664 11.1936C79.5324 11.1426 79.0629 10.8438 78.665 10.8438C78.0555 10.8438 77.5397 11.1378 77.1775 11.6221C76.6487 11.4521 76.431 11.7956 76.1648 12.1381L75.928 12.1917C75.9459 12.079 75.9623 11.9671 75.9571 11.8537H75.12C75.006 12.8942 74.8035 13.9477 74.645 14.9885L74.6035 15.2146H75.515C75.6671 14.2549 75.7502 13.6406 75.8009 13.2244L76.1441 13.0398C76.1957 12.8543 76.3557 12.7919 76.6777 12.7995C76.6357 13.0187 76.6129 13.2495 76.6129 13.4884C76.6129 14.5881 77.2247 15.2727 78.205 15.2727C78.4576 15.2727 78.6746 15.2405 79.0105 15.1516L79.1701 14.2099C78.8681 14.354 78.6207 14.4219 78.3965 14.4219C77.8668 14.4219 77.5463 14.0422 77.5463 13.415C77.5463 12.5048 78.0227 11.8674 78.7031 11.8674Z" fill="#000066"/>
<path fill-rule="evenodd" clip-rule="evenodd" d="M86.416 11.082L86.2135 12.276C85.9649 11.9578 85.6972 11.7274 85.344 11.7274C84.8843 11.7274 84.4659 12.0657 84.192 12.564C83.8104 12.4872 83.4162 12.3565 83.4162 12.3565L83.4159 12.3597C83.4463 12.0812 83.4592 11.9117 83.4561 11.8538H82.6192C82.5055 12.8943 82.3028 13.9478 82.1444 14.9886L82.1025 15.2147H83.0142C83.1373 14.4391 83.2313 13.7943 83.3007 13.2836C83.6123 13.0102 83.7683 12.7723 84.0824 12.7878C83.9431 13.1151 83.8618 13.4918 83.8618 13.8784C83.8618 14.7182 84.2991 15.2728 84.9616 15.2728C85.2956 15.2728 85.5518 15.1609 85.8016 14.9018L85.7586 15.2145H86.6206L87.3146 11.082H86.416ZM85.2767 14.4383C84.9667 14.4383 84.8097 14.215 84.8097 13.7757C84.8097 13.1151 85.1032 12.6468 85.5162 12.6468C85.8293 12.6468 85.9991 12.878 85.9991 13.305C85.9991 13.9713 85.7007 14.4383 85.2767 14.4383Z" fill="#000066"/>
<path fill-rule="evenodd" clip-rule="evenodd" d="M64.8035 14.9697H63.8926L64.4147 11.793L63.2494 14.9697H62.6284L62.5517 11.8114L62.0031 14.9697H61.1504L61.8627 10.8374H63.1727L63.2093 13.3955L64.0933 10.8374H65.5082L64.8035 14.9697Z" fill="white"/>
<path fill-rule="evenodd" clip-rule="evenodd" d="M67.0464 13.4726C66.9509 13.4618 66.9087 13.4589 66.8431 13.4589C66.3267 13.4589 66.0655 13.6306 66.0655 13.9701C66.0655 14.1791 66.1931 14.3129 66.3921 14.3129C66.7631 14.3129 67.0306 13.9699 67.0464 13.4726ZM67.709 14.9697C67.5876 14.9697 66.9543 14.9697 66.9543 14.9697L66.9715 14.6217C66.7413 14.8966 66.434 15.028 66.0167 15.028C65.523 15.028 65.1846 14.6533 65.1846 14.1097C65.1846 13.2911 65.7734 12.8144 66.784 12.8144C66.8873 12.8144 67.0197 12.8236 67.1553 12.8406C67.1834 12.7293 67.1909 12.6821 67.1909 12.6219C67.1909 12.3996 67.0322 12.3168 66.6067 12.3168C66.1609 12.3116 65.7934 12.4194 65.6422 12.4674C65.6519 12.4118 65.7686 11.7118 65.7686 11.7118C66.2225 11.5825 66.522 11.5337 66.8589 11.5337C67.6412 11.5337 68.0555 11.875 68.0548 12.5193C68.0563 12.692 68.027 12.9056 67.9811 13.1853C67.9019 13.6716 67.7322 14.716 67.709 14.9697Z" fill="white"/>
<path fill-rule="evenodd" clip-rule="evenodd" d="M79.9281 10.9485L79.7789 11.8453C79.4536 11.6866 79.218 11.6223 78.9652 11.6223C78.2851 11.6223 77.8079 12.2605 77.8079 13.1708C77.8079 13.798 78.1286 14.1769 78.6582 14.1769C78.8826 14.1769 79.1304 14.1096 79.4319 13.965L79.2718 14.9067C78.9364 14.9954 78.7194 15.0279 78.4669 15.0279C77.4859 15.0279 76.875 14.3432 76.875 13.2437C76.875 11.7664 77.7196 10.7339 78.9269 10.7339C79.3247 10.7339 79.7946 10.8975 79.9281 10.9485Z" fill="white"/>
<path fill-rule="evenodd" clip-rule="evenodd" d="M81.3973 13.4726C81.3024 13.4618 81.2601 13.4589 81.1946 13.4589C80.6784 13.4589 80.4171 13.6306 80.4171 13.9701C80.4171 14.1791 80.5445 14.3129 80.7434 14.3129C81.1143 14.3129 81.3821 13.9699 81.3973 13.4726ZM82.0604 14.9697C81.9392 14.9697 81.3057 14.9697 81.3057 14.9697L81.3228 14.6217C81.0926 14.8966 80.7853 15.028 80.3684 15.028C79.8742 15.028 79.5361 14.6533 79.5361 14.1097C79.5361 13.2911 80.1244 12.8144 81.1353 12.8144C81.2386 12.8144 81.3707 12.8236 81.5062 12.8406C81.5345 12.7293 81.5419 12.6821 81.5419 12.6219C81.5419 12.3996 81.3837 12.3168 80.9579 12.3168C80.5124 12.3116 80.1451 12.4194 79.9936 12.4674C80.0032 12.4118 80.12 11.7118 80.12 11.7118C80.574 11.5825 80.8731 11.5337 81.2101 11.5337C81.9924 11.5337 82.407 11.875 82.406 12.5193C82.4078 12.692 82.3783 12.9056 82.3324 13.1853C82.2535 13.6716 82.0837 14.716 82.0604 14.9697Z" fill="white"/>
<path fill-rule="evenodd" clip-rule="evenodd" d="M71.7576 14.9183C71.5084 14.9946 71.3139 15.0276 71.1033 15.0276C70.6376 15.0276 70.3832 14.7677 70.3832 14.2896C70.3768 14.1405 70.4504 13.7504 70.5084 13.3936C70.5608 13.0793 70.9033 11.1001 70.9033 11.1001H71.8089L71.703 11.6087H72.1679L72.044 12.4162H71.5776C71.4725 13.0559 71.3225 13.8516 71.3206 13.9572C71.3206 14.131 71.4163 14.2062 71.6328 14.2062C71.7366 14.2062 71.8169 14.1963 71.8785 14.1744L71.7576 14.9183Z" fill="white"/>
<path fill-rule="evenodd" clip-rule="evenodd" d="M74.5349 14.892C74.2237 14.9846 73.9232 15.0283 73.6055 15.028C72.5915 15.0274 72.0635 14.513 72.0635 13.5288C72.0635 12.3796 72.7355 11.5337 73.6476 11.5337C74.3949 11.5337 74.8716 12.0073 74.8716 12.7506C74.8716 12.9969 74.8385 13.2373 74.7603 13.5768H72.9567C72.8956 14.0644 73.2172 14.2678 73.7438 14.2678C74.0678 14.2678 74.3602 14.2027 74.6856 14.0559L74.5349 14.892ZM74.0259 12.899C74.0308 12.8287 74.1219 12.2992 73.6044 12.2992C73.3161 12.2992 73.1096 12.513 73.0257 12.899H74.0259Z" fill="white"/>
<path fill-rule="evenodd" clip-rule="evenodd" d="M68.2558 12.6714C68.2558 13.0969 68.4682 13.3895 68.9498 13.61C69.3185 13.7784 69.3757 13.8283 69.3757 13.981C69.3757 14.1905 69.213 14.285 68.8524 14.285C68.5807 14.285 68.3278 14.244 68.0361 14.1527C68.0361 14.1527 67.9167 14.8933 67.9111 14.9282C68.118 14.9723 68.3027 15.0124 68.8589 15.028C69.8204 15.028 70.2643 14.6728 70.2643 13.9047C70.2643 13.4428 70.0784 13.1719 69.6221 12.9684C69.2402 12.7978 69.1963 12.7601 69.1963 12.603C69.1963 12.4213 69.3477 12.3279 69.6423 12.3279C69.8208 12.3279 70.0652 12.3472 70.2967 12.3788L70.4264 11.5995C70.1905 11.5633 69.833 11.5337 69.6246 11.5337C68.6054 11.5337 68.2527 12.0505 68.2558 12.6714Z" fill="white"/>
<path fill-rule="evenodd" clip-rule="evenodd" d="M86.882 14.9697H86.0203L86.063 14.6569C85.8131 14.9161 85.557 15.028 85.2231 15.028C84.5611 15.028 84.123 14.4741 84.123 13.6333C84.123 12.5155 84.8022 11.5732 85.6054 11.5732C85.9587 11.5732 86.2261 11.7133 86.4753 12.0316L86.6774 10.8374H87.5759L86.882 14.9697ZM85.538 14.1932C85.9625 14.1932 86.2604 13.7264 86.2604 13.0608C86.2604 12.6337 86.0908 12.4016 85.7777 12.4016C85.3644 12.4016 85.0711 12.8701 85.0711 13.531C85.0711 13.9708 85.2283 14.1932 85.538 14.1932Z" fill="white"/>
<path fill-rule="evenodd" clip-rule="evenodd" d="M82.8817 11.6088C82.7678 12.6491 82.5652 13.7025 82.4067 14.7435L82.3652 14.9695H83.2764C83.6024 12.9143 83.6807 12.5132 84.1921 12.5633C84.2734 12.1427 84.4249 11.7743 84.5378 11.5886C84.1563 11.5114 83.9432 11.7207 83.6639 12.1186C83.6862 11.9464 83.7263 11.7794 83.7188 11.6088H82.8817Z" fill="white"/>
<path fill-rule="evenodd" clip-rule="evenodd" d="M75.3821 11.6088C75.2677 12.6491 75.0648 13.7025 74.9066 14.7435L74.8652 14.9695H75.7767C76.1028 12.9143 76.1809 12.5132 76.6914 12.5633C76.7732 12.1427 76.9251 11.7743 77.0377 11.5886C76.6565 11.5114 76.443 11.7207 76.1643 12.1186C76.1863 11.9464 76.2267 11.7794 76.2188 11.6088H75.3821Z" fill="white"/>
<rect y="0.0976562" width="43" height="25.0498" rx="4" fill="white"/>
<path fill-rule="evenodd" clip-rule="evenodd" d="M17.8408 16.6084L19.163 8.64502H21.2764L19.9543 16.6084H17.8408Z" fill="#26337A"/>
<path fill-rule="evenodd" clip-rule="evenodd" d="M27.6198 8.84046C27.2019 8.68064 26.5447 8.50635 25.7261 8.50635C23.6366 8.50635 22.1658 9.58702 22.1536 11.1345C22.1403 12.2791 23.2031 12.9175 24.0044 13.2979C24.828 13.6879 25.1046 13.9374 25.1014 14.2861C25.0957 14.8195 24.444 15.0639 23.8364 15.0639C22.9903 15.0639 22.5407 14.9436 21.8457 14.6462L21.5739 14.5195L21.2783 16.302C21.7711 16.5238 22.6847 16.7163 23.6329 16.7264C25.8535 16.7264 27.2963 15.6588 27.3133 14.0064C27.3209 13.0987 26.7577 12.4107 25.5381 11.8427C24.7995 11.4734 24.3463 11.2288 24.3515 10.855C24.3519 10.5241 24.7344 10.1697 25.5621 10.1697C26.2534 10.1589 26.7539 10.3139 27.1438 10.4758L27.3336 10.5668L27.6198 8.84046Z" fill="#26337A"/>
<path fill-rule="evenodd" clip-rule="evenodd" d="M30.4344 13.7848C30.6095 13.3271 31.2763 11.5589 31.2763 11.5589C31.2639 11.5799 31.4504 11.0976 31.5572 10.7991L31.6998 11.486C31.6998 11.486 32.1053 13.3867 32.1888 13.7848C31.8598 13.7848 30.847 13.7848 30.4344 13.7848ZM33.0416 8.65283H31.4084C30.9018 8.65283 30.5226 8.79372 30.3006 9.31295L27.1621 16.6109H29.3819C29.3819 16.6109 29.744 15.6292 29.8262 15.4137C30.0683 15.4137 32.2252 15.4178 32.5331 15.4178C32.5964 15.6957 32.7904 16.6109 32.7904 16.6109H34.752L33.0416 8.65283Z" fill="#26337A"/>
<path fill-rule="evenodd" clip-rule="evenodd" d="M16.0673 8.65186L13.9988 14.081L13.7772 12.9774C13.3917 11.7058 12.1918 10.3276 10.8496 9.63703L12.742 16.6016L14.9787 16.6003L18.3069 8.65186H16.0673Z" fill="#26337A"/>
<path fill-rule="evenodd" clip-rule="evenodd" d="M12.0787 8.64648H8.67062L8.64258 8.81148C11.2945 9.47113 13.0491 11.0634 13.7774 12.9774L13.0368 9.31836C12.909 8.81372 12.5377 8.66413 12.0787 8.64648Z" fill="#EC982D"/>
</svg>
