<svg width="177" height="50" viewBox="0 0 177 50" fill="none" xmlns="http://www.w3.org/2000/svg">
<rect width="177" height="50" fill="#F7F7F7"/>
<g clip-path="url(#clip0_202_69)">
<path d="M22 29H34V27.6667H22V29ZM22 25.6667H34V24.3333H22V25.6667ZM22 21V22.3333H34V21H22Z" fill="#2A2A2A"/>
</g>
<path d="M51.684 29.168C53.64 29.168 54.936 28.124 54.936 26.516C54.936 24.608 53.28 24.116 51.972 23.744C51.12 23.504 50.4 23.3 50.4 22.736C50.4 22.208 50.892 21.896 51.6 21.896C52.392 21.896 52.848 22.244 53.124 23.048L54.912 22.64C54.54 20.924 52.992 20.276 51.48 20.276C49.656 20.276 48.396 21.296 48.396 22.844C48.396 24.596 49.92 25.088 51.168 25.472C52.092 25.76 52.872 26 52.872 26.672C52.872 27.224 52.452 27.56 51.708 27.56C50.88 27.56 50.292 27.14 50.04 26.144L48.084 26.564C48.336 28.232 49.824 29.168 51.684 29.168ZM62.1988 25.88C62.1868 23.72 60.8548 22.748 59.0788 22.748C57.1228 22.748 55.7788 23.936 55.7788 25.94C55.7788 27.932 57.0748 29.12 59.1388 29.12C60.5788 29.12 61.7068 28.4 62.1028 27.128L60.3508 26.888C60.1468 27.392 59.7148 27.644 59.1268 27.644C58.3588 27.644 57.7468 27.188 57.6628 26.312H62.1748L62.1988 25.88ZM59.0908 24.152C59.7268 24.152 60.2188 24.512 60.3268 25.16H57.7108C57.8668 24.464 58.3468 24.152 59.0908 24.152ZM65.217 29V20H63.321V29H65.217ZM72.7223 25.88C72.7103 23.72 71.3783 22.748 69.6023 22.748C67.6463 22.748 66.3022 23.936 66.3022 25.94C66.3022 27.932 67.5983 29.12 69.6623 29.12C71.1023 29.12 72.2303 28.4 72.6263 27.128L70.8743 26.888C70.6703 27.392 70.2383 27.644 69.6503 27.644C68.8823 27.644 68.2703 27.188 68.1863 26.312H72.6983L72.7223 25.88ZM69.6143 24.152C70.2503 24.152 70.7423 24.512 70.8503 25.16H68.2343C68.3903 24.464 68.8703 24.152 69.6143 24.152ZM76.9164 29.12C78.5004 29.12 79.7244 28.28 79.9884 26.78L78.2484 26.612C78.0804 27.308 77.6004 27.644 76.9044 27.644C76.0044 27.644 75.4524 26.936 75.4524 25.928C75.4524 24.932 76.0044 24.236 76.9044 24.236C77.6004 24.236 78.0804 24.548 78.2484 25.256L79.9884 25.088C79.7244 23.588 78.5484 22.748 76.9164 22.748C74.9244 22.748 73.5564 24.044 73.5564 25.928C73.5564 27.824 74.9244 29.12 76.9164 29.12ZM84.9155 29V27.5H84.3755C83.9195 27.5 83.6435 27.272 83.6435 26.72V24.32H84.9155V22.868H83.6435V20.924H81.9755V21.668C81.9755 22.652 81.5795 22.868 80.9675 22.868H80.5595V24.32H81.7475V27.008C81.7475 28.268 82.4435 29 83.7035 29H84.9155ZM93.2886 29.168C95.2566 29.168 96.8166 28.088 97.4046 26.396L95.5446 25.736C95.2206 26.732 94.3686 27.356 93.2886 27.356C91.8726 27.356 90.8526 26.312 90.8526 24.728C90.8526 23.144 91.8726 22.088 93.2886 22.088C94.3686 22.088 95.2206 22.712 95.5446 23.708L97.4046 23.048C96.8166 21.356 95.2566 20.276 93.2886 20.276C90.7086 20.276 88.8726 22.088 88.8726 24.728C88.8726 27.368 90.7086 29.168 93.2886 29.168ZM103.963 25.016C103.963 23.54 102.979 22.748 101.155 22.748C99.5712 22.748 98.4072 23.348 98.1432 24.668L99.9552 24.944C100.087 24.368 100.507 24.092 101.131 24.092C101.587 24.092 102.067 24.248 102.067 24.704C102.067 25.004 101.803 25.088 101.479 25.172L100.423 25.412C99.4032 25.652 98.1072 26.036 98.1072 27.44C98.1072 28.7 99.1752 29.12 100.135 29.12C100.891 29.12 101.707 28.868 102.139 28.268L102.211 29H104.095V28.832C103.975 28.568 103.963 28.256 103.963 27.908V25.016ZM100.699 27.824C100.303 27.824 100.015 27.632 100.015 27.236C100.015 26.768 100.399 26.612 100.723 26.54L102.175 26.132C102.175 27.248 101.383 27.824 100.699 27.824ZM109.15 29V27.5H108.61C108.154 27.5 107.878 27.272 107.878 26.72V24.32H109.15V22.868H107.878V20.924H106.21V21.668C106.21 22.652 105.814 22.868 105.202 22.868H104.794V24.32H105.982V27.008C105.982 28.268 106.678 29 107.938 29H109.15ZM116.363 25.88C116.351 23.72 115.019 22.748 113.243 22.748C111.287 22.748 109.943 23.936 109.943 25.94C109.943 27.932 111.239 29.12 113.303 29.12C114.743 29.12 115.871 28.4 116.267 27.128L114.515 26.888C114.311 27.392 113.879 27.644 113.291 27.644C112.523 27.644 111.911 27.188 111.827 26.312H116.339L116.363 25.88ZM113.255 24.152C113.891 24.152 114.383 24.512 114.491 25.16H111.875C112.031 24.464 112.511 24.152 113.255 24.152ZM121.829 23.576C121.505 23.084 120.845 22.748 120.017 22.748C118.469 22.748 117.197 23.9 117.197 25.76C117.197 27.62 118.469 28.808 119.993 28.808C120.773 28.808 121.445 28.496 121.793 28.064V28.952C121.793 29.912 121.409 30.548 120.377 30.548C119.621 30.548 119.165 30.188 118.817 29.444L117.245 30.08C117.665 31.232 118.625 32 120.449 32C122.441 32 123.701 31.1 123.701 28.808V22.868H121.901L121.829 23.576ZM120.461 27.284C119.645 27.284 119.021 26.636 119.021 25.76C119.021 24.884 119.633 24.248 120.461 24.248C121.313 24.248 121.913 24.884 121.913 25.76C121.913 26.636 121.301 27.284 120.461 27.284ZM128.223 29.12C130.239 29.108 131.643 27.932 131.643 25.928C131.643 23.948 130.239 22.76 128.223 22.748C126.195 22.76 124.791 23.948 124.791 25.928C124.791 27.932 126.195 29.108 128.223 29.12ZM128.223 27.62C127.287 27.62 126.687 26.936 126.687 25.928C126.687 24.944 127.287 24.248 128.223 24.248C129.147 24.248 129.747 24.944 129.747 25.928C129.747 26.936 129.147 27.62 128.223 27.62ZM134.639 22.868H132.743V29H134.639V26.228C134.639 24.896 135.239 24.512 136.643 24.512V22.748C135.731 22.748 135.011 23.12 134.639 23.672V22.868ZM138.495 22.112C139.071 22.112 139.551 21.632 139.551 21.044C139.551 20.468 139.071 19.988 138.495 19.988C137.907 19.988 137.427 20.468 137.427 21.044C137.427 21.632 137.907 22.112 138.495 22.112ZM139.443 29V22.868H137.547V29H139.443ZM146.949 25.88C146.937 23.72 145.605 22.748 143.829 22.748C141.873 22.748 140.529 23.936 140.529 25.94C140.529 27.932 141.825 29.12 143.889 29.12C145.329 29.12 146.457 28.4 146.853 27.128L145.101 26.888C144.897 27.392 144.465 27.644 143.877 27.644C143.109 27.644 142.497 27.188 142.413 26.312H146.925L146.949 25.88ZM143.841 24.152C144.477 24.152 144.969 24.512 145.077 25.16H142.461C142.617 24.464 143.097 24.152 143.841 24.152ZM150.663 29.12C151.983 29.12 153.219 28.544 153.219 27.08C153.219 25.844 152.379 25.46 150.891 25.124C150.207 24.98 149.643 24.848 149.643 24.476C149.643 24.164 149.955 23.996 150.399 23.996C150.891 23.996 151.239 24.176 151.431 24.692L153.099 24.332C152.775 23.192 151.647 22.748 150.459 22.748C148.923 22.748 147.927 23.48 147.927 24.716C147.927 25.88 148.767 26.288 150.123 26.552C150.783 26.684 151.395 26.816 151.395 27.296C151.395 27.692 150.963 27.824 150.543 27.824C149.979 27.824 149.559 27.608 149.355 26.96L147.771 27.404C148.011 28.58 149.211 29.12 150.663 29.12Z" fill="#2A2A2A"/>
<defs>
<clipPath id="clip0_202_69">
<rect width="16" height="16" fill="white" transform="translate(20 17)"/>
</clipPath>
</defs>
</svg>
