<svg width="117" height="31" viewBox="0 0 117 31" fill="none" xmlns="http://www.w3.org/2000/svg">
<path d="M0.40625 28H15.1506V23.2273H6.32955V6.18182H0.40625V28ZM37.8317 17.0909C37.8317 9.80398 33.1442 5.88352 27.2209 5.88352C21.255 5.88352 16.6101 9.80398 16.6101 17.0909C16.6101 24.3352 21.255 28.2983 27.2209 28.2983C33.1442 28.2983 37.8317 24.3778 37.8317 17.0909ZM31.7379 17.0909C31.7379 21.0114 30.1612 23.142 27.2209 23.142C24.2805 23.142 22.7038 21.0114 22.7038 17.0909C22.7038 13.1705 24.2805 11.0398 27.2209 11.0398C30.1612 11.0398 31.7379 13.1705 31.7379 17.0909ZM54.7413 13.3835H60.7285C60.2704 9.00497 56.2967 5.88352 51.1404 5.88352C45.2598 5.88352 40.487 9.93182 40.487 17.1335C40.487 24.0369 44.8123 28.2983 51.1831 28.2983C56.8933 28.2983 60.9842 24.804 60.9842 18.8381V15.8125H51.3109V20.0312H55.274C55.2207 21.9276 53.8784 23.142 51.2257 23.142C48.1575 23.142 46.5808 20.8835 46.5808 17.0483C46.5808 13.2663 48.2853 11.0398 51.2683 11.0398C53.122 11.0398 54.3791 11.892 54.7413 13.3835ZM84.8825 17.0909C84.8825 9.80398 80.195 5.88352 74.2717 5.88352C68.3058 5.88352 63.6609 9.80398 63.6609 17.0909C63.6609 24.3352 68.3058 28.2983 74.2717 28.2983C80.195 28.2983 84.8825 24.3778 84.8825 17.0909ZM78.7887 17.0909C78.7887 21.0114 77.212 23.142 74.2717 23.142C71.3313 23.142 69.7546 21.0114 69.7546 17.0909C69.7546 13.1705 71.3313 11.0398 74.2717 11.0398C77.212 11.0398 78.7887 13.1705 78.7887 17.0909Z" fill="#2A2A2A"/>
<path d="M86.2168 30.1H116.217V0.0999998H86.2168V30.1Z" fill="white"/>
</svg>
